{
    "asset" : {
        "copyright" : "Copyright 2020 Omabuarts Studio. For more info, visit https://omabuarts.com/license",
        "generator" : "Khronos glTF Blender I/O v1.1.46",
        "version" : "2.0"
    },
    "scene" : 0,
    "scenes" : [
        {
            "name" : "Scene",
            "nodes" : [
                11
            ]
        }
    ],
    "nodes" : [
        {
            "name" : "ear.L",
            "rotation" : [
                0.09846517443656921,
                -0.09801455587148666,
                -0.0055019971914589405,
                0.9902865886688232
            ],
            "scale" : [
                0.9999998211860657,
                0.9999971389770508,
                0.9999998807907104
            ],
            "translation" : [
                0.23058876395225525,
                1.0816518068313599,
                0.662803590297699
            ]
        },
        {
            "name" : "ear.R",
            "rotation" : [
                0.09846517443656921,
                0.09801455587148666,
                0.0055019971914589405,
                0.9902865886688232
            ],
            "scale" : [
                0.9999998211860657,
                0.9999971389770508,
                0.9999998807907104
            ],
            "translation" : [
                -0.2286635935306549,
                1.0816518068313599,
                0.662803590297699
            ]
        },
        {
            "name" : "tail.02",
            "rotation" : [
                -7.622851683208864e-08,
                0.9765570759773254,
                0.2152586728334427,
                3.055021693398885e-07
            ],
            "scale" : [
                0.9999998807907104,
                1,
                1
            ],
            "translation" : [
                -5.874767339264508e-10,
                0.6751793026924133,
                0.0010616786312311888
            ]
        },
        {
            "children" : [
                2
            ],
            "name" : "tail.01",
            "rotation" : [
                -2.8172806310067244e-07,
                -0.5621802806854248,
                0.8270147442817688,
                1.7415720776625676e-07
            ],
            "scale" : [
                1,
                0.9999992251396179,
                0.9999982118606567
            ],
            "translation" : [
                4.365335648515156e-09,
                0.5701859593391418,
                -0.5169884562492371
            ]
        },
        {
            "children" : [
                0,
                1,
                3
            ],
            "name" : "body",
            "rotation" : [
                0.7071068286895752,
                -5.552136194873918e-17,
                -5.552136856618408e-17,
                0.7071067094802856
            ],
            "translation" : [
                -0.0009625903330743313,
                0.0024857521057128906,
                0.4151380956172943
            ]
        },
        {
            "name" : "leg.F.L",
            "rotation" : [
                2.2197245641564223e-07,
                0.7071068286895752,
                -0.7071067094802856,
                -2.2197249904820637e-07
            ],
            "translation" : [
                0.22348487377166748,
                -0.4422527551651001,
                0.6740041375160217
            ]
        },
        {
            "name" : "leg.B.L",
            "rotation" : [
                2.2197249904820637e-07,
                0.7071068286895752,
                -0.7071068286895752,
                -2.219725132590611e-07
            ],
            "translation" : [
                0.22348487377166748,
                0.46894222497940063,
                0.6740041375160217
            ]
        },
        {
            "name" : "leg.F.R",
            "rotation" : [
                -2.2197245641564223e-07,
                0.7071068286895752,
                -0.7071067094802856,
                2.2197249904820637e-07
            ],
            "translation" : [
                -0.22348487377166748,
                -0.4422527551651001,
                0.6740041375160217
            ]
        },
        {
            "name" : "leg.B.R",
            "rotation" : [
                -2.2197249904820637e-07,
                0.7071068286895752,
                -0.7071068286895752,
                2.219725132590611e-07
            ],
            "translation" : [
                -0.22348487377166748,
                0.46894222497940063,
                0.6740041375160217
            ]
        },
        {
            "children" : [
                4,
                5,
                6,
                7,
                8
            ],
            "name" : "root",
            "rotation" : [
                -0.7071068286895752,
                5.552136194873918e-17,
                5.552136194873918e-17,
                0.7071068286895752
            ]
        },
        {
            "mesh" : 0,
            "name" : "ArcticFox",
            "skin" : 0
        },
        {
            "children" : [
                10,
                9
            ],
            "name" : "Rig"
        }
    ],
    "materials" : [
        {
            "doubleSided" : true,
            "emissiveFactor" : [
                0,
                0,
                0
            ],
            "name" : "Mat_ArcticFox",
            "pbrMetallicRoughness" : {
                "baseColorTexture" : {
                    "index" : 0,
                    "texCoord" : 0
                },
                "metallicFactor" : 0,
                "roughnessFactor" : 0.5
            }
        }
    ],
    "meshes" : [
        {
            "name" : "ArcticFox_LOD3",
            "primitives" : [
                {
                    "attributes" : {
                        "POSITION" : 0,
                        "NORMAL" : 1,
                        "TEXCOORD_0" : 2,
                        "JOINTS_0" : 3,
                        "WEIGHTS_0" : 4
                    },
                    "indices" : 5,
                    "material" : 0
                }
            ]
        }
    ],
    "textures" : [
        {
            "source" : 0
        }
    ],
    "images" : [
        {
            "bufferView" : 6,
            "mimeType" : "image/png",
            "name" : "Tex_ArcticFox"
        }
    ],
    "skins" : [
        {
            "inverseBindMatrices" : 6,
            "joints" : [
                9,
                4,
                0,
                1,
                3,
                2,
                5,
                6,
                7,
                8
            ],
            "name" : "Rig"
        }
    ],
    "accessors" : [
        {
            "bufferView" : 0,
            "componentType" : 5126,
            "count" : 397,
            "max" : [
                0.5543268918991089,
                1.9241063594818115,
                1.4013196229934692
            ],
            "min" : [
                -0.5543268918991089,
                -5.897504706808832e-10,
                -1.5192837715148926
            ],
            "type" : "VEC3"
        },
        {
            "bufferView" : 1,
            "componentType" : 5126,
            "count" : 397,
            "type" : "VEC3"
        },
        {
            "bufferView" : 2,
            "componentType" : 5126,
            "count" : 397,
            "type" : "VEC2"
        },
        {
            "bufferView" : 3,
            "componentType" : 5123,
            "count" : 397,
            "type" : "VEC4"
        },
        {
            "bufferView" : 4,
            "componentType" : 5126,
            "count" : 397,
            "type" : "VEC4"
        },
        {
            "bufferView" : 5,
            "componentType" : 5123,
            "count" : 1476,
            "type" : "SCALAR"
        },
        {
            "bufferView" : 7,
            "componentType" : 5126,
            "count" : 10,
            "type" : "MAT4"
        }
    ],
    "bufferViews" : [
        {
            "buffer" : 0,
            "byteLength" : 4764,
            "byteOffset" : 0
        },
        {
            "buffer" : 0,
            "byteLength" : 4764,
            "byteOffset" : 4764
        },
        {
            "buffer" : 0,
            "byteLength" : 3176,
            "byteOffset" : 9528
        },
        {
            "buffer" : 0,
            "byteLength" : 3176,
            "byteOffset" : 12704
        },
        {
            "buffer" : 0,
            "byteLength" : 6352,
            "byteOffset" : 15880
        },
        {
            "buffer" : 0,
            "byteLength" : 2952,
            "byteOffset" : 22232
        },
        {
            "buffer" : 0,
            "byteLength" : 133,
            "byteOffset" : 25184
        },
        {
            "buffer" : 0,
            "byteLength" : 640,
            "byteOffset" : 25320
        }
    ],
    "buffers" : [
        {
            "byteLength" : 25960,
            "uri" : "data:application/octet-stream;base64,"
        }
    ]
}
